<svg xmlns="http://www.w3.org/2000/svg" viewBox="0 0 800 420">
  <defs>
    <marker id="a" markerWidth="8" markerHeight="6" refX="7" refY="3" orient="auto"><polygon points="0 0,8 3,0 6" fill="#94a3b8"/></marker>
  </defs>
  <rect width="800" height="420" fill="#0f172a" rx="12"/>
  <text x="400" y="35" fill="white" font-size="18" font-weight="bold" text-anchor="middle" font-family="Arial">Event-Driven Terminal Pipeline</text>
  <text x="400" y="55" fill="#94a3b8" font-size="11" text-anchor="middle" font-family="Arial">No path from producer to screen bypasses an event</text>

  <rect x="30" y="80" width="140" height="70" rx="8" fill="#1e293b" stroke="#22d3ee" stroke-width="2"/>
  <text x="100" y="108" fill="#22d3ee" font-size="13" font-weight="bold" text-anchor="middle" font-family="Arial">User Input</text>
  <text x="100" y="128" fill="#94a3b8" font-size="10" text-anchor="middle" font-family="Arial">Keyboard + Paste</text>
  <text x="100" y="143" fill="#475569" font-size="9" text-anchor="middle" font-family="Arial">input-state.ts</text>

  <rect x="220" y="80" width="140" height="70" rx="8" fill="#1e293b" stroke="#a78bfa" stroke-width="2"/>
  <text x="290" y="108" fill="#a78bfa" font-size="13" font-weight="bold" text-anchor="middle" font-family="Arial">Input Reducer</text>
  <text x="290" y="128" fill="#94a3b8" font-size="10" text-anchor="middle" font-family="Arial">reduceKey() Pure</text>
  <text x="290" y="143" fill="#475569" font-size="9" text-anchor="middle" font-family="Arial">input-state.ts</text>

  <rect x="220" y="200" width="140" height="70" rx="8" fill="#1e293b" stroke="#fbbf24" stroke-width="2"/>
  <text x="290" y="228" fill="#fbbf24" font-size="13" font-weight="bold" text-anchor="middle" font-family="Arial">SSE Adapter</text>
  <text x="290" y="248" fill="#94a3b8" font-size="10" text-anchor="middle" font-family="Arial">mapTaskEvent()</text>
  <text x="290" y="263" fill="#475569" font-size="9" text-anchor="middle" font-family="Arial">task-event-adapter.ts</text>

  <rect x="30" y="200" width="140" height="70" rx="8" fill="#1e293b" stroke="#34d399" stroke-width="2"/>
  <text x="100" y="228" fill="#34d399" font-size="13" font-weight="bold" text-anchor="middle" font-family="Arial">Orchestrator</text>
  <text x="100" y="248" fill="#94a3b8" font-size="10" text-anchor="middle" font-family="Arial">REST + SSE</text>
  <text x="100" y="263" fill="#475569" font-size="9" text-anchor="middle" font-family="Arial">services/orchestrator</text>

  <rect x="420" y="130" width="160" height="100" rx="10" fill="#143C78" stroke="#22d3ee" stroke-width="2.5"/>
  <text x="500" y="160" fill="white" font-size="15" font-weight="bold" text-anchor="middle" font-family="Arial">TerminalState</text>
  <text x="500" y="180" fill="#cbd5e1" font-size="10" text-anchor="middle" font-family="Arial">reduce(state, event)</text>
  <text x="500" y="196" fill="#94a3b8" font-size="9" text-anchor="middle" font-family="Arial">Single source of truth</text>
  <text x="500" y="212" fill="#64748b" font-size="9" text-anchor="middle" font-family="Arial">state.ts</text>

  <rect x="640" y="130" width="130" height="100" rx="8" fill="#1e293b" stroke="#22d3ee" stroke-width="2"/>
  <text x="705" y="158" fill="#22d3ee" font-size="13" font-weight="bold" text-anchor="middle" font-family="Arial">View Composer</text>
  <text x="705" y="178" fill="#94a3b8" font-size="10" text-anchor="middle" font-family="Arial">composeApp()</text>
  <text x="705" y="194" fill="#94a3b8" font-size="9" text-anchor="middle" font-family="Arial">Pure lines + cursor</text>
  <text x="705" y="212" fill="#475569" font-size="9" text-anchor="middle" font-family="Arial">app-view.ts</text>

  <rect x="640" y="270" width="130" height="70" rx="8" fill="#1e293b" stroke="#34d399" stroke-width="2"/>
  <text x="705" y="298" fill="#34d399" font-size="13" font-weight="bold" text-anchor="middle" font-family="Arial">Renderer</text>
  <text x="705" y="316" fill="#94a3b8" font-size="10" text-anchor="middle" font-family="Arial">Alt Screen + FPS</text>
  <text x="705" y="330" fill="#475569" font-size="9" text-anchor="middle" font-family="Arial">runtime.ts</text>

  <rect x="420" y="270" width="160" height="70" rx="8" fill="#1e293b" stroke="#fb923c" stroke-width="2"/>
  <text x="500" y="298" fill="#fb923c" font-size="13" font-weight="bold" text-anchor="middle" font-family="Arial">Activity Grouper</text>
  <text x="500" y="316" fill="#94a3b8" font-size="10" text-anchor="middle" font-family="Arial">groupActivities()</text>
  <text x="500" y="330" fill="#475569" font-size="9" text-anchor="middle" font-family="Arial">view.ts</text>

  <line x1="170" y1="115" x2="218" y2="115" stroke="#22d3ee" stroke-width="2" marker-end="url(#a)"/>
  <line x1="170" y1="235" x2="218" y2="235" stroke="#34d399" stroke-width="2" marker-end="url(#a)"/>
  <line x1="360" y1="115" x2="418" y2="155" stroke="#a78bfa" stroke-width="2" marker-end="url(#a)"/>
  <line x1="360" y1="235" x2="418" y2="195" stroke="#fbbf24" stroke-width="2" marker-end="url(#a)"/>
  <line x1="580" y1="180" x2="638" y2="180" stroke="#22d3ee" stroke-width="2" marker-end="url(#a)"/>
  <line x1="580" y1="305" x2="638" y2="305" stroke="#34d399" stroke-width="2" marker-end="url(#a)"/>
  <line x1="500" y1="230" x2="500" y2="268" stroke="#fb923c" stroke-width="2" marker-end="url(#a)"/>

  <rect x="30" y="360" width="14" height="10" rx="2" fill="#1e293b" stroke="#22d3ee" stroke-width="1.5"/><text x="50" y="369" fill="#94a3b8" font-size="9" font-family="Arial">Frontend</text>
  <rect x="110" y="360" width="14" height="10" rx="2" fill="#1e293b" stroke="#34d399" stroke-width="1.5"/><text x="130" y="369" fill="#94a3b8" font-size="9" font-family="Arial">Backend</text>
  <rect x="190" y="360" width="14" height="10" rx="2" fill="#1e293b" stroke="#a78bfa" stroke-width="1.5"/><text x="210" y="369" fill="#94a3b8" font-size="9" font-family="Arial">State</text>
  <rect x="260" y="360" width="14" height="10" rx="2" fill="#1e293b" stroke="#fbbf24" stroke-width="1.5"/><text x="280" y="369" fill="#94a3b8" font-size="9" font-family="Arial">Adapter</text>
  <rect x="340" y="360" width="14" height="10" rx="2" fill="#1e293b" stroke="#fb923c" stroke-width="1.5"/><text x="360" y="369" fill="#94a3b8" font-size="9" font-family="Arial">Grouper</text>
</svg>
